<mxfile host="app.diagrams.net" modified="2023-06-13T13:25:19.471Z" agent="Mozilla/5.0 (Macintosh; Intel Mac OS X 10_15_7) AppleWebKit/537.36 (KHTML, like Gecko) Chrome/112.0.0.0 Safari/537.36" version="21.3.8" etag="pSir2U1PRCdlAqwknzeh" type="github">
  <diagram name="Страница 1" id="QXKex_9ggng20ZRdq4s6">
    <mxGraphModel>
      <root>
        <mxCell id="0" />
        <mxCell id="1" parent="0" />
      </root>
    </mxGraphModel>
  </diagram>
</mxfile>
